# xmcd
#
# Track frame offsets:
#	180
#	15500
#	27644
#	38221
#	48592
#	58868
#	70333
#	83384
#	95851
#	118808
#	132841
#	143726
#
# Disc length: 2066 seconds
#
# Revision: 0
# Processed by: cddbd v1.4PL0 Copyright (c) Steve Scherf et al.
# Submitted via: dBpowerAMP V4.0
#
DISCID=a908100c
DTITLE=Chuck Hughes - Chrome Plated Heart
DYEAR=1999
DGENRE=Country
TTITLE0=Battle of New Orleans
TTITLE1=Reubens' Train
TTITLE2=Down The Road
TTITLE3=Beaumont Rag
TTITLE4=Dixie Hoedown
TTITLE5=9 lb. Hammer
TTITLE6=Whiskey Park
TTITLE7=Hearts In The Aftermath
TTITLE8=Chrome Plated Heart
TTITLE9=I Remember Love
TTITLE10=When You Fall
TTITLE11=Jazmin
EXTD=Limited Local Release - Includes covers of classic folk/country songs along with original songs.  Submitted by J. Tyler Henderson
EXTT0=
EXTT1=
EXTT2=
EXTT3=
EXTT4=
EXTT5=
EXTT6=
EXTT7=
EXTT8=
EXTT9=
EXTT10=
EXTT11=
PLAYORDER=
